# xmcd
#
# Track frame offsets: 
#        225
#        14750
#        28610
#        39967
#        51950
#        63032
#        72112
#        81850
#        90920
#        102300
#
# Disc length: 1478 seconds
#
# Revision: 0
# Processed by: cddbd v1.5.2PL0 Copyright (c) Steve Scherf et al.
# Submitted via: ExactAudioCopy v0.95b4
#
DISCID=7505c30a
DTITLE=Webb Pierce - Golden Hits Volume 1
DYEAR=1900
DGENRE=Country
TTITLE0=Wondering
TTITLE1=Back Street Affair
TTITLE2=More And More
TTITLE3=Memory No.1
TTITLE4=I'm Walking The Dog
TTITLE5=Tupelo County Jail
TTITLE6=That's Me Without You
TTITLE7=I Don't Care
TTITLE8=Walking The Streets
TTITLE9=I'm Tired
EXTD=
EXTT0=
EXTT1=
EXTT2=
EXTT3=
EXTT4=
EXTT5=
EXTT6=
EXTT7=
EXTT8=
EXTT9=
PLAYORDER=
